<mxfile host="app.diagrams.net" modified="2023-09-27T06:05:49.156Z" agent="Mozilla/5.0 (Windows NT 10.0; Win64; x64) AppleWebKit/537.36 (KHTML, like Gecko) Chrome/117.0.0.0 Safari/537.36" etag="J3j4BGfiO1bzxSqkOnEt" version="21.8.2" type="device">
  <diagram name="Sayfa -1" id="jB-IIGdhmgs4sx04j2hi">
    <mxGraphModel dx="1050" dy="613" grid="1" gridSize="10" guides="1" tooltips="1" connect="1" arrows="1" fold="1" page="1" pageScale="1" pageWidth="827" pageHeight="1169" math="0" shadow="0">
      <root>
        <mxCell id="0" />
        <mxCell id="1" parent="0" />
        <mxCell id="H0Y3ROdNG1b_i3VXu__t-3" value="" style="edgeStyle=orthogonalEdgeStyle;rounded=0;orthogonalLoop=1;jettySize=auto;html=1;" edge="1" parent="1" source="H0Y3ROdNG1b_i3VXu__t-1" target="H0Y3ROdNG1b_i3VXu__t-2">
          <mxGeometry relative="1" as="geometry" />
        </mxCell>
        <mxCell id="H0Y3ROdNG1b_i3VXu__t-1" value="Start" style="rounded=1;whiteSpace=wrap;html=1;" vertex="1" parent="1">
          <mxGeometry x="320" y="40" width="120" height="60" as="geometry" />
        </mxCell>
        <mxCell id="H0Y3ROdNG1b_i3VXu__t-5" style="edgeStyle=orthogonalEdgeStyle;rounded=0;orthogonalLoop=1;jettySize=auto;html=1;entryX=0.5;entryY=0;entryDx=0;entryDy=0;" edge="1" parent="1" source="H0Y3ROdNG1b_i3VXu__t-2" target="H0Y3ROdNG1b_i3VXu__t-4">
          <mxGeometry relative="1" as="geometry" />
        </mxCell>
        <mxCell id="H0Y3ROdNG1b_i3VXu__t-2" value="int a,b,c,d=0" style="shape=parallelogram;perimeter=parallelogramPerimeter;whiteSpace=wrap;html=1;fixedSize=1;" vertex="1" parent="1">
          <mxGeometry x="320" y="160" width="120" height="60" as="geometry" />
        </mxCell>
        <mxCell id="H0Y3ROdNG1b_i3VXu__t-12" value="true" style="edgeStyle=orthogonalEdgeStyle;rounded=0;orthogonalLoop=1;jettySize=auto;html=1;" edge="1" parent="1" source="H0Y3ROdNG1b_i3VXu__t-4">
          <mxGeometry relative="1" as="geometry">
            <mxPoint x="560" y="400" as="targetPoint" />
          </mxGeometry>
        </mxCell>
        <mxCell id="H0Y3ROdNG1b_i3VXu__t-16" value="false" style="edgeStyle=orthogonalEdgeStyle;rounded=0;orthogonalLoop=1;jettySize=auto;html=1;" edge="1" parent="1" source="H0Y3ROdNG1b_i3VXu__t-4" target="H0Y3ROdNG1b_i3VXu__t-15">
          <mxGeometry relative="1" as="geometry" />
        </mxCell>
        <mxCell id="H0Y3ROdNG1b_i3VXu__t-4" value="if (a%5==0)" style="rhombus;whiteSpace=wrap;html=1;" vertex="1" parent="1">
          <mxGeometry x="340" y="290" width="80" height="80" as="geometry" />
        </mxCell>
        <mxCell id="H0Y3ROdNG1b_i3VXu__t-17" style="edgeStyle=orthogonalEdgeStyle;rounded=0;orthogonalLoop=1;jettySize=auto;html=1;entryX=1;entryY=0.5;entryDx=0;entryDy=0;" edge="1" parent="1" source="H0Y3ROdNG1b_i3VXu__t-14" target="H0Y3ROdNG1b_i3VXu__t-15">
          <mxGeometry relative="1" as="geometry" />
        </mxCell>
        <mxCell id="H0Y3ROdNG1b_i3VXu__t-14" value="d+=a" style="rounded=0;whiteSpace=wrap;html=1;" vertex="1" parent="1">
          <mxGeometry x="500" y="400" width="120" height="60" as="geometry" />
        </mxCell>
        <mxCell id="H0Y3ROdNG1b_i3VXu__t-18" value="true" style="edgeStyle=orthogonalEdgeStyle;rounded=0;orthogonalLoop=1;jettySize=auto;html=1;entryX=0.5;entryY=0;entryDx=0;entryDy=0;" edge="1" parent="1" source="H0Y3ROdNG1b_i3VXu__t-15" target="H0Y3ROdNG1b_i3VXu__t-19">
          <mxGeometry relative="1" as="geometry">
            <mxPoint x="560" y="560" as="targetPoint" />
            <Array as="points">
              <mxPoint x="561" y="490" />
            </Array>
          </mxGeometry>
        </mxCell>
        <mxCell id="H0Y3ROdNG1b_i3VXu__t-20" value="false" style="edgeStyle=orthogonalEdgeStyle;rounded=0;orthogonalLoop=1;jettySize=auto;html=1;entryX=0.5;entryY=0;entryDx=0;entryDy=0;" edge="1" parent="1" source="H0Y3ROdNG1b_i3VXu__t-15" target="H0Y3ROdNG1b_i3VXu__t-21">
          <mxGeometry relative="1" as="geometry">
            <mxPoint x="380" y="580" as="targetPoint" />
            <Array as="points">
              <mxPoint x="380" y="545" />
              <mxPoint x="381" y="545" />
            </Array>
          </mxGeometry>
        </mxCell>
        <mxCell id="H0Y3ROdNG1b_i3VXu__t-15" value="if (b%5==0)" style="rhombus;whiteSpace=wrap;html=1;" vertex="1" parent="1">
          <mxGeometry x="340" y="430" width="80" height="80" as="geometry" />
        </mxCell>
        <mxCell id="H0Y3ROdNG1b_i3VXu__t-22" style="edgeStyle=orthogonalEdgeStyle;rounded=0;orthogonalLoop=1;jettySize=auto;html=1;entryX=1;entryY=0.5;entryDx=0;entryDy=0;" edge="1" parent="1" source="H0Y3ROdNG1b_i3VXu__t-19" target="H0Y3ROdNG1b_i3VXu__t-21">
          <mxGeometry relative="1" as="geometry" />
        </mxCell>
        <mxCell id="H0Y3ROdNG1b_i3VXu__t-19" value="d+=b" style="rounded=0;whiteSpace=wrap;html=1;" vertex="1" parent="1">
          <mxGeometry x="500" y="540" width="120" height="60" as="geometry" />
        </mxCell>
        <mxCell id="H0Y3ROdNG1b_i3VXu__t-23" value="true" style="edgeStyle=orthogonalEdgeStyle;rounded=0;orthogonalLoop=1;jettySize=auto;html=1;exitX=1;exitY=1;exitDx=0;exitDy=0;" edge="1" parent="1" source="H0Y3ROdNG1b_i3VXu__t-21" target="H0Y3ROdNG1b_i3VXu__t-24">
          <mxGeometry relative="1" as="geometry">
            <mxPoint x="560" y="700" as="targetPoint" />
          </mxGeometry>
        </mxCell>
        <mxCell id="H0Y3ROdNG1b_i3VXu__t-27" value="false" style="edgeStyle=orthogonalEdgeStyle;rounded=0;orthogonalLoop=1;jettySize=auto;html=1;entryX=0.5;entryY=0;entryDx=0;entryDy=0;" edge="1" parent="1" source="H0Y3ROdNG1b_i3VXu__t-21" target="H0Y3ROdNG1b_i3VXu__t-26">
          <mxGeometry relative="1" as="geometry">
            <Array as="points">
              <mxPoint x="380" y="720" />
              <mxPoint x="380" y="720" />
            </Array>
          </mxGeometry>
        </mxCell>
        <mxCell id="H0Y3ROdNG1b_i3VXu__t-21" value="if (c%5==0)" style="rhombus;whiteSpace=wrap;html=1;" vertex="1" parent="1">
          <mxGeometry x="340" y="585" width="80" height="80" as="geometry" />
        </mxCell>
        <mxCell id="H0Y3ROdNG1b_i3VXu__t-24" value="d+=c" style="rounded=0;whiteSpace=wrap;html=1;" vertex="1" parent="1">
          <mxGeometry x="510" y="710" width="120" height="60" as="geometry" />
        </mxCell>
        <mxCell id="H0Y3ROdNG1b_i3VXu__t-31" value="true" style="edgeStyle=orthogonalEdgeStyle;rounded=0;orthogonalLoop=1;jettySize=auto;html=1;" edge="1" parent="1" source="H0Y3ROdNG1b_i3VXu__t-26" target="H0Y3ROdNG1b_i3VXu__t-30">
          <mxGeometry relative="1" as="geometry" />
        </mxCell>
        <mxCell id="H0Y3ROdNG1b_i3VXu__t-32" value="false" style="edgeStyle=orthogonalEdgeStyle;rounded=0;orthogonalLoop=1;jettySize=auto;html=1;" edge="1" parent="1" source="H0Y3ROdNG1b_i3VXu__t-26">
          <mxGeometry relative="1" as="geometry">
            <mxPoint x="380" y="930" as="targetPoint" />
          </mxGeometry>
        </mxCell>
        <mxCell id="H0Y3ROdNG1b_i3VXu__t-26" value="d!=0" style="rhombus;whiteSpace=wrap;html=1;" vertex="1" parent="1">
          <mxGeometry x="340" y="760" width="80" height="80" as="geometry" />
        </mxCell>
        <mxCell id="H0Y3ROdNG1b_i3VXu__t-29" style="edgeStyle=orthogonalEdgeStyle;rounded=0;orthogonalLoop=1;jettySize=auto;html=1;entryX=0.735;entryY=0.138;entryDx=0;entryDy=0;entryPerimeter=0;" edge="1" parent="1" source="H0Y3ROdNG1b_i3VXu__t-24" target="H0Y3ROdNG1b_i3VXu__t-26">
          <mxGeometry relative="1" as="geometry" />
        </mxCell>
        <mxCell id="H0Y3ROdNG1b_i3VXu__t-36" style="edgeStyle=orthogonalEdgeStyle;rounded=0;orthogonalLoop=1;jettySize=auto;html=1;" edge="1" parent="1" source="H0Y3ROdNG1b_i3VXu__t-30" target="H0Y3ROdNG1b_i3VXu__t-35">
          <mxGeometry relative="1" as="geometry" />
        </mxCell>
        <mxCell id="H0Y3ROdNG1b_i3VXu__t-30" value="&quot;d = &quot; + d" style="shape=document;whiteSpace=wrap;html=1;boundedLbl=1;" vertex="1" parent="1">
          <mxGeometry x="510" y="810" width="120" height="80" as="geometry" />
        </mxCell>
        <mxCell id="H0Y3ROdNG1b_i3VXu__t-37" style="edgeStyle=orthogonalEdgeStyle;rounded=0;orthogonalLoop=1;jettySize=auto;html=1;entryX=0;entryY=0.5;entryDx=0;entryDy=0;" edge="1" parent="1" source="H0Y3ROdNG1b_i3VXu__t-34" target="H0Y3ROdNG1b_i3VXu__t-35">
          <mxGeometry relative="1" as="geometry" />
        </mxCell>
        <mxCell id="H0Y3ROdNG1b_i3VXu__t-34" value="5-e bolunen eded yoxdur" style="shape=document;whiteSpace=wrap;html=1;boundedLbl=1;" vertex="1" parent="1">
          <mxGeometry x="320" y="930" width="120" height="80" as="geometry" />
        </mxCell>
        <mxCell id="H0Y3ROdNG1b_i3VXu__t-35" value="end" style="ellipse;whiteSpace=wrap;html=1;" vertex="1" parent="1">
          <mxGeometry x="540" y="950" width="120" height="80" as="geometry" />
        </mxCell>
      </root>
    </mxGraphModel>
  </diagram>
</mxfile>
